<?xml version="1.0" standalone="no"?>
<!DOCTYPE svg PUBLIC "-//W3C//DTD SVG 20010904//EN"
 "http://www.w3.org/TR/2001/REC-SVG-20010904/DTD/svg10.dtd">
<svg version="1.0" xmlns="http://www.w3.org/2000/svg"
 width="470.000000pt" height="492.000000pt" viewBox="0 0 470.000000 492.000000"
 preserveAspectRatio="xMidYMid meet">
<metadata>
Created by potrace 1.16, written by Peter Selinger 2001-2019
</metadata>
<g transform="translate(0.000000,492.000000) scale(0.100000,-0.100000)"
fill="#68935A" stroke="none">
<path d="M1487 4356 c-58 -21 -114 -62 -147 -108 -17 -23 -114 -206 -216 -407
-103 -201 -213 -417 -246 -479 l-59 -113 295 3 296 3 24 25 c13 14 113 178
221 365 155 266 198 348 198 375 0 26 -23 75 -90 190 l-91 155 -73 2 c-44 2
-90 -3 -112 -11z"/>
<path d="M1764 4341 c9 -16 46 -80 83 -142 65 -110 68 -116 67 -179 l0 -65
-207 -355 c-114 -195 -219 -365 -234 -377 -46 -37 -98 -43 -400 -43 l-288 0
-67 -133 c-37 -72 -131 -256 -209 -407 -220 -429 -220 -404 5 -845 874 -1717
832 -1642 944 -1697 l47 -23 728 -3 c400 -1 727 1 727 5 0 5 -9 22 -20 38 -11
17 -20 41 -20 55 0 27 226 430 261 465 18 19 35 20 271 23 175 2 260 -1 280
-9 17 -7 40 -32 59 -65 17 -30 32 -54 34 -54 5 0 173 323 563 1085 133 259
246 490 251 515 14 62 14 126 -2 186 -20 77 -953 1894 -1002 1951 -18 21 -57
52 -86 68 l-54 30 -873 3 -873 2 15 -29z m867 -756 c118 -48 226 -74 342 -81
105 -8 114 -13 103 -59 -5 -18 -17 -28 -47 -37 l-42 -12 53 -18 c87 -29 102
-55 52 -86 -16 -9 -27 -23 -24 -30 9 -27 -19 -39 -104 -46 -107 -8 -177 9
-293 70 -46 24 -89 44 -96 44 -7 0 -48 -17 -91 -37 -73 -35 -85 -38 -159 -36
-44 1 -95 3 -114 5 -30 3 -37 -2 -67 -45 -18 -27 -43 -75 -55 -108 -12 -32
-26 -59 -31 -59 -34 0 -2 110 58 193 29 39 33 51 23 63 -26 31 6 35 67 7 77
-35 147 -35 229 -1 141 60 162 67 198 73 21 3 35 10 32 16 -8 13 -73 11 -177
-5 -85 -12 -117 -9 -104 12 7 11 45 19 157 32 62 7 97 6 150 -5 56 -12 96 -13
201 -6 72 5 135 14 141 20 6 6 7 11 1 11 -118 2 -304 43 -422 92 -88 36 -129
35 -269 -11 -320 -105 -535 -349 -573 -652 -5 -46 -10 -89 -10 -96 0 -7 -7
-13 -15 -13 -12 0 -15 14 -15 63 0 139 72 326 174 448 124 150 332 272 536
314 93 19 97 19 191 -20z m-154 -514 c18 -23 40 -66 48 -95 l15 -53 55 28 c66
33 153 48 166 28 17 -27 -8 -116 -59 -211 -1 -3 12 -9 30 -13 48 -11 119 -49
148 -80 l25 -27 -34 -29 c-67 -56 -117 -73 -216 -73 -106 -1 -146 14 -242 92
-77 62 -143 86 -227 80 -63 -4 -155 -41 -163 -65 -2 -6 22 -24 53 -39 75 -37
175 -40 246 -7 37 17 49 19 57 9 30 -35 -97 -82 -199 -73 -99 8 -214 69 -208
111 4 26 84 82 141 97 69 18 186 7 240 -24 28 -15 47 -21 47 -14 0 26 -49 114
-81 145 -39 40 -118 82 -154 82 -33 0 -33 -30 0 -96 29 -58 31 -77 8 -72 -30
5 -73 104 -73 166 l0 55 53 -7 c28 -3 78 -19 110 -35 31 -16 57 -26 57 -21 0
5 9 35 21 65 22 60 74 128 93 122 6 -2 26 -23 43 -46z m810 -288 c-17 -317
-251 -591 -600 -704 -143 -47 -211 -46 -334 4 -87 35 -161 51 -348 74 -51 7
-60 11 -63 30 -4 28 31 63 64 63 37 0 21 15 -30 30 -25 7 -52 20 -60 29 -14
15 -14 19 0 39 8 12 22 22 30 22 11 0 13 6 9 19 -9 31 21 52 73 50 26 0 68 0
95 1 67 1 118 -15 228 -71 l96 -49 75 35 c41 20 102 41 136 47 54 10 70 9 119
-6 l57 -18 24 28 c28 35 65 105 81 157 13 39 41 51 41 17 0 -34 -36 -118 -74
-170 -19 -27 -31 -52 -26 -55 15 -9 12 -35 -4 -35 -7 0 -40 12 -72 26 -84 37
-157 31 -268 -25 -45 -22 -103 -44 -129 -47 -26 -4 -50 -11 -53 -15 -7 -13
114 -11 198 2 52 8 73 8 81 0 9 -9 8 -14 -1 -20 -24 -15 -217 -34 -258 -26
-51 11 -308 12 -356 2 -56 -12 -46 -27 18 -27 82 0 246 -36 348 -77 82 -32 96
-35 158 -30 37 3 106 19 152 35 140 48 229 105 342 217 84 84 107 114 141 185
46 95 70 177 79 272 7 77 10 88 25 88 8 0 10 -27 6 -97z m8 -851 l172 3 -10
-22 c-10 -23 -27 -31 -27 -13 0 6 -27 10 -60 10 l-60 0 0 -206 c0 -185 2 -208
18 -220 15 -12 8 -13 -50 -14 -39 0 -68 4 -68 10 0 6 7 10 15 10 13 0 15 30
15 210 l0 210 -59 0 c-34 0 -63 -5 -67 -12 -8 -13 -34 17 -34 39 0 11 5 11 21
3 14 -8 79 -11 194 -8z m-2039 2 c18 -5 50 -62 39 -72 -2 -3 -18 7 -35 22 -65
54 -170 22 -170 -53 0 -37 28 -60 107 -90 95 -36 123 -69 123 -143 0 -41 -5
-54 -34 -86 l-34 -37 -106 -3 -106 -4 0 71 c0 41 4 71 10 71 6 0 10 -14 10
-30 0 -19 9 -40 25 -55 20 -21 34 -25 85 -25 55 0 65 3 91 29 54 54 28 103
-78 146 -79 31 -108 55 -124 102 -15 47 10 114 54 142 31 20 98 27 143 15z
m384 -206 c47 -117 93 -221 103 -230 9 -10 17 -20 17 -23 0 -3 -24 -5 -54 -5
-47 0 -53 2 -50 18 3 9 -10 55 -29 102 l-34 85 -64 0 -63 0 -32 -80 c-18 -44
-33 -90 -34 -102 0 -19 -6 -23 -30 -23 -16 0 -30 5 -30 10 0 6 4 10 9 10 5 0
46 93 91 208 92 230 98 242 108 242 4 0 45 -96 92 -212z m597 187 c-15 -11
-17 -39 -17 -229 0 -119 -4 -216 -8 -216 -5 0 -85 82 -178 181 l-169 181 -3
-168 c-2 -109 1 -170 8 -172 25 -9 6 -22 -30 -22 -44 0 -48 4 -25 26 12 12 15
46 15 172 0 198 -5 228 -39 247 -25 14 -25 15 24 12 l50 -2 160 -169 160 -169
3 158 c2 143 1 160 -15 169 -15 9 -12 12 22 16 48 7 64 1 42 -15z m328 -192
c54 -137 95 -224 108 -235 22 -17 21 -18 -35 -18 -53 0 -58 2 -58 23 -1 12
-16 58 -34 102 l-32 80 -63 0 -63 0 -34 -84 c-19 -47 -34 -93 -34 -103 0 -13
-8 -18 -30 -18 -33 0 -37 7 -16 24 10 9 96 214 177 424 5 12 13 22 18 22 5 0
48 -98 96 -217z m397 191 c32 -16 52 -71 43 -114 -4 -17 -22 -45 -40 -63 l-32
-32 45 -68 c25 -38 60 -85 79 -104 32 -34 35 -36 85 -30 47 6 50 5 36 -9 -21
-21 -85 -33 -122 -23 -39 11 -68 40 -134 137 -52 76 -59 83 -87 80 l-30 -3 -3
-89 c-2 -72 0 -92 14 -107 17 -18 15 -19 -44 -19 -59 0 -80 11 -47 24 13 4 15
37 15 204 0 174 -2 201 -17 213 -14 12 -8 15 48 19 85 7 158 0 191 -16z m818
-19 c0 -41 -12 -45 -28 -10 -11 24 -16 25 -92 25 l-80 0 0 -96 0 -95 85 3 c79
3 85 2 85 -17 0 -19 -5 -20 -85 -16 l-86 3 3 -93 3 -94 90 -3 c83 -3 91 -1
107 20 l18 23 0 -37 0 -38 -155 0 c-97 0 -155 4 -155 10 0 6 5 10 10 10 15 0
13 413 -2 428 -9 9 21 12 135 12 l147 0 0 -35z m192 8 c52 -49 32 -137 -37
-163 -56 -21 -125 30 -125 93 0 85 100 129 162 70z m-1872 -598 c-8 -37 4 -60
13 -24 3 11 16 23 29 27 l23 6 -25 7 c-23 6 -23 7 -6 14 32 14 51 -7 51 -56 0
-38 -3 -44 -23 -47 -13 -2 -30 2 -38 8 -11 10 -14 9 -14 -7 0 -25 -19 -43 -45
-43 -25 0 -45 18 -45 40 1 12 3 12 15 -3 16 -22 48 -19 53 6 2 11 -6 20 -21
26 -58 22 -52 81 7 81 34 0 34 0 26 -35z"/>
<path d="M2402 3028 c-11 -18 -25 -52 -31 -75 -7 -23 -16 -45 -22 -49 -7 -4
-1 -16 14 -33 36 -38 57 -75 72 -123 l13 -43 23 50 c35 74 34 182 -2 250 -14
27 -31 51 -36 52 -6 2 -20 -11 -31 -29z"/>
<path d="M2676 2938 c-22 -5 -54 -18 -73 -29 -18 -12 -40 -19 -47 -16 -10 4
-15 -9 -19 -52 -3 -33 -16 -79 -31 -109 -31 -61 -24 -64 52 -26 65 32 126 101
147 165 23 68 19 77 -29 67z"/>
<path d="M2660 2725 c-20 -24 -95 -66 -142 -79 l-41 -13 49 -24 c74 -35 179
-34 257 4 31 16 57 32 57 37 0 12 -58 45 -105 60 -22 7 -45 17 -51 21 -7 6
-16 3 -24 -6z"/>
<path d="M2800 1810 l0 -100 40 0 c53 0 86 17 100 51 29 70 -25 149 -101 149
l-39 0 0 -100z"/>
</g>
</svg>
